M48
; DRILL file {KiCad 9.0.6-9.0.6~ubuntu22.04.1} date 2025-12-09T15:20:41+0200
; FORMAT={-:-/ absolute / metric / decimal}
; #@! TF.CreationDate,2025-12-09T15:20:41+02:00
; #@! TF.GenerationSoftware,Kicad,Pcbnew,9.0.6-9.0.6~ubuntu22.04.1
; #@! TF.FileFunction,MixedPlating,1,2
FMAT,2
METRIC
; #@! TA.AperFunction,Plated,PTH,ComponentDrill
T1C0.750
; #@! TA.AperFunction,Plated,PTH,ViaDrill
T2C1.000
; #@! TA.AperFunction,Plated,PTH,ComponentDrill
T3C1.500
%
G90
G05
T1
X33.5Y-18.5
X35.5Y-18.5
X37.5Y-18.5
X39.5Y-18.5
X62.0Y-18.55
X64.0Y-18.55
X66.0Y-18.55
X68.0Y-18.55
X89.0Y-18.5
X91.0Y-18.5
X93.0Y-18.5
X95.0Y-18.5
X118.0Y-18.5
X120.0Y-18.5
X122.0Y-18.5
X124.0Y-18.5
T2
X48.0Y-70.0
X51.847Y-61.0
X67.25Y-76.0
X71.5Y-74.5
X73.5Y-45.0
X74.0Y-35.75
X82.991Y-44.25
X84.0Y-48.737
X105.25Y-77.0
X109.0Y-94.75
X110.535Y-45.785
X116.75Y-67.5
X125.055Y-33.5
T3
X17.25Y-52.5
X17.25Y-92.25
X25.5Y-105.132
X28.76Y-28.0
X28.76Y-40.7
X30.5Y-105.132
X31.3Y-28.0
X31.3Y-40.7
X33.84Y-28.0
X33.84Y-40.7
X34.5Y-52.25
X34.5Y-92.0
X36.38Y-28.0
X36.38Y-40.7
X38.92Y-28.0
X38.92Y-40.7
X40.0Y-105.132
X41.46Y-28.0
X41.46Y-40.7
X44.0Y-28.0
X44.0Y-40.7
X45.0Y-105.132
X46.54Y-28.0
X46.54Y-40.7
X56.26Y-27.77
X56.26Y-40.47
X58.8Y-27.77
X58.8Y-40.47
X61.34Y-27.77
X61.34Y-40.47
X63.88Y-27.77
X63.88Y-40.47
X66.42Y-27.77
X66.42Y-40.47
X67.0Y-104.5
X68.96Y-27.77
X68.96Y-40.47
X71.0Y-65.0
X71.0Y-90.4
X71.5Y-27.77
X71.5Y-40.47
X72.0Y-104.5
X73.54Y-65.0
X73.54Y-90.4
X74.04Y-27.77
X74.04Y-40.47
X76.08Y-65.0
X76.08Y-90.4
X78.62Y-65.0
X78.62Y-90.4
X79.5Y-104.5
X81.16Y-65.0
X81.16Y-90.4
X83.411Y-27.54
X83.411Y-40.24
X83.7Y-65.0
X83.7Y-90.4
X84.5Y-104.5
X85.951Y-27.54
X85.951Y-40.24
X86.24Y-65.0
X86.24Y-90.4
X88.491Y-27.54
X88.491Y-40.24
X88.78Y-65.0
X88.78Y-90.4
X91.031Y-27.54
X91.031Y-40.24
X91.32Y-65.0
X91.32Y-90.4
X92.0Y-104.5
X93.571Y-27.54
X93.571Y-40.24
X93.86Y-65.0
X93.86Y-90.4
X96.111Y-27.54
X96.111Y-40.24
X96.4Y-65.0
X96.4Y-90.4
X97.0Y-104.5
X98.651Y-27.54
X98.651Y-40.24
X98.94Y-65.0
X98.94Y-90.4
X101.191Y-27.54
X101.191Y-40.24
X101.48Y-65.0
X101.48Y-90.4
X104.02Y-65.0
X104.02Y-90.4
X106.56Y-65.0
X106.56Y-90.4
X107.0Y-103.46
X107.0Y-106.0
X112.911Y-27.77
X112.911Y-40.47
X115.451Y-27.77
X115.451Y-40.47
X117.0Y-103.46
X117.0Y-106.0
X117.991Y-27.77
X117.991Y-40.47
X120.531Y-27.77
X120.531Y-40.47
X123.071Y-27.77
X123.071Y-40.47
X124.0Y-58.38
X124.0Y-66.0
X124.0Y-72.38
X124.0Y-80.0
X124.0Y-86.38
X124.0Y-94.0
X125.611Y-27.77
X125.611Y-40.47
X127.0Y-103.46
X127.0Y-106.0
X128.151Y-27.77
X128.151Y-40.47
X130.691Y-27.77
X130.691Y-40.47
X133.868Y-59.5
X133.868Y-64.5
X133.868Y-73.5
X133.868Y-78.5
X133.868Y-87.5
X133.868Y-92.5
M30
