G04 #@! TF.GenerationSoftware,KiCad,Pcbnew,9.0.6-9.0.6~ubuntu22.04.1*
G04 #@! TF.CreationDate,2025-12-09T15:20:40+02:00*
G04 #@! TF.ProjectId,automatic_soldering_station_pcb,6175746f-6d61-4746-9963-5f736f6c6465,rev?*
G04 #@! TF.SameCoordinates,Original*
G04 #@! TF.FileFunction,Copper,L1,Top*
G04 #@! TF.FilePolarity,Positive*
%FSLAX46Y46*%
G04 Gerber Fmt 4.6, Leading zero omitted, Abs format (unit mm)*
G04 Created by KiCad (PCBNEW 9.0.6-9.0.6~ubuntu22.04.1) date 2025-12-09 15:20:40*
%MOMM*%
%LPD*%
G01*
G04 APERTURE LIST*
G04 #@! TA.AperFunction,ComponentPad*
%ADD10C,2.000000*%
G04 #@! TD*
G04 #@! TA.AperFunction,ComponentPad*
%ADD11C,2.500000*%
G04 #@! TD*
G04 #@! TA.AperFunction,ComponentPad*
%ADD12O,1.200000X1.750000*%
G04 #@! TD*
G04 #@! TA.AperFunction,ComponentPad*
%ADD13R,2.000000X2.000000*%
G04 #@! TD*
G04 #@! TA.AperFunction,ComponentPad*
%ADD14C,3.500000*%
G04 #@! TD*
G04 #@! TA.AperFunction,ViaPad*
%ADD15C,1.400000*%
G04 #@! TD*
G04 #@! TA.AperFunction,Conductor*
%ADD16C,0.300000*%
G04 #@! TD*
G04 #@! TA.AperFunction,Conductor*
%ADD17C,1.000000*%
G04 #@! TD*
G04 #@! TA.AperFunction,Conductor*
%ADD18C,0.500000*%
G04 #@! TD*
G04 APERTURE END LIST*
D10*
X124000000Y-66000000D03*
X124000000Y-58380000D03*
G04 #@! TA.AperFunction,ComponentPad*
G36*
G01*
X134867500Y-79750000D02*
X132867500Y-79750000D01*
G75*
G02*
X132617500Y-79500000I0J250000D01*
G01*
X132617500Y-77500000D01*
G75*
G02*
X132867500Y-77250000I250000J0D01*
G01*
X134867500Y-77250000D01*
G75*
G02*
X135117500Y-77500000I0J-250000D01*
G01*
X135117500Y-79500000D01*
G75*
G02*
X134867500Y-79750000I-250000J0D01*
G01*
G37*
G04 #@! TD.AperFunction*
D11*
X133867500Y-73500000D03*
G04 #@! TA.AperFunction,ComponentPad*
G36*
G01*
X117400000Y-19125000D02*
X117400000Y-17875000D01*
G75*
G02*
X117650000Y-17625000I250000J0D01*
G01*
X118350000Y-17625000D01*
G75*
G02*
X118600000Y-17875000I0J-250000D01*
G01*
X118600000Y-19125000D01*
G75*
G02*
X118350000Y-19375000I-250000J0D01*
G01*
X117650000Y-19375000D01*
G75*
G02*
X117400000Y-19125000I0J250000D01*
G01*
G37*
G04 #@! TD.AperFunction*
D12*
X120000000Y-18500000D03*
X122000000Y-18500000D03*
X124000000Y-18500000D03*
G04 #@! TA.AperFunction,ComponentPad*
G36*
G01*
X61400000Y-19175000D02*
X61400000Y-17925000D01*
G75*
G02*
X61650000Y-17675000I250000J0D01*
G01*
X62350000Y-17675000D01*
G75*
G02*
X62600000Y-17925000I0J-250000D01*
G01*
X62600000Y-19175000D01*
G75*
G02*
X62350000Y-19425000I-250000J0D01*
G01*
X61650000Y-19425000D01*
G75*
G02*
X61400000Y-19175000I0J250000D01*
G01*
G37*
G04 #@! TD.AperFunction*
X64000000Y-18550000D03*
X66000000Y-18550000D03*
X68000000Y-18550000D03*
G04 #@! TA.AperFunction,ComponentPad*
G36*
G01*
X90750000Y-105500000D02*
X90750000Y-103500000D01*
G75*
G02*
X91000000Y-103250000I250000J0D01*
G01*
X93000000Y-103250000D01*
G75*
G02*
X93250000Y-103500000I0J-250000D01*
G01*
X93250000Y-105500000D01*
G75*
G02*
X93000000Y-105750000I-250000J0D01*
G01*
X91000000Y-105750000D01*
G75*
G02*
X90750000Y-105500000I0J250000D01*
G01*
G37*
G04 #@! TD.AperFunction*
D11*
X97000000Y-104500000D03*
D13*
X74040000Y-40470000D03*
D10*
X71500000Y-40470000D03*
X68960000Y-40470000D03*
X66420000Y-40470000D03*
X63880000Y-40470000D03*
X61340000Y-40470000D03*
X58800000Y-40470000D03*
X56260000Y-40470000D03*
D13*
X56260000Y-27770000D03*
D10*
X58800000Y-27770000D03*
X61340000Y-27770000D03*
X63880000Y-27770000D03*
X66420000Y-27770000D03*
X68960000Y-27770000D03*
X71500000Y-27770000D03*
X74040000Y-27770000D03*
D13*
X46540000Y-40700000D03*
D10*
X44000000Y-40700000D03*
X41460000Y-40700000D03*
X38920000Y-40700000D03*
X36380000Y-40700000D03*
X33840000Y-40700000D03*
X31300000Y-40700000D03*
X28760000Y-40700000D03*
D13*
X28760000Y-28000000D03*
D10*
X31300000Y-28000000D03*
X33840000Y-28000000D03*
X36380000Y-28000000D03*
X38920000Y-28000000D03*
X41460000Y-28000000D03*
X44000000Y-28000000D03*
X46540000Y-28000000D03*
G04 #@! TA.AperFunction,ComponentPad*
G36*
G01*
X46250000Y-104132500D02*
X46250000Y-106132500D01*
G75*
G02*
X46000000Y-106382500I-250000J0D01*
G01*
X44000000Y-106382500D01*
G75*
G02*
X43750000Y-106132500I0J250000D01*
G01*
X43750000Y-104132500D01*
G75*
G02*
X44000000Y-103882500I250000J0D01*
G01*
X46000000Y-103882500D01*
G75*
G02*
X46250000Y-104132500I0J-250000D01*
G01*
G37*
G04 #@! TD.AperFunction*
D11*
X40000000Y-105132500D03*
D13*
X106560000Y-65000000D03*
D10*
X104020000Y-65000000D03*
X101480000Y-65000000D03*
X98940000Y-65000000D03*
X96400000Y-65000000D03*
X93860000Y-65000000D03*
X91320000Y-65000000D03*
X88780000Y-65000000D03*
X86240000Y-65000000D03*
X83700000Y-65000000D03*
X81160000Y-65000000D03*
X78620000Y-65000000D03*
X76080000Y-65000000D03*
X73540000Y-65000000D03*
X71000000Y-65000000D03*
X71000000Y-90400000D03*
X73540000Y-90400000D03*
X76080000Y-90400000D03*
X78620000Y-90400000D03*
X81160000Y-90400000D03*
X83700000Y-90400000D03*
X86240000Y-90400000D03*
X88780000Y-90400000D03*
X91320000Y-90400000D03*
X93860000Y-90400000D03*
X96400000Y-90400000D03*
X98940000Y-90400000D03*
X101480000Y-90400000D03*
X104020000Y-90400000D03*
X106560000Y-90400000D03*
D13*
X101191000Y-40240000D03*
D10*
X98651000Y-40240000D03*
X96111000Y-40240000D03*
X93571000Y-40240000D03*
X91031000Y-40240000D03*
X88491000Y-40240000D03*
X85951000Y-40240000D03*
X83411000Y-40240000D03*
D13*
X83411000Y-27540000D03*
D10*
X85951000Y-27540000D03*
X88491000Y-27540000D03*
X91031000Y-27540000D03*
X93571000Y-27540000D03*
X96111000Y-27540000D03*
X98651000Y-27540000D03*
X101191000Y-27540000D03*
G04 #@! TA.AperFunction,ComponentPad*
G36*
G01*
X88400000Y-19125000D02*
X88400000Y-17875000D01*
G75*
G02*
X88650000Y-17625000I250000J0D01*
G01*
X89350000Y-17625000D01*
G75*
G02*
X89600000Y-17875000I0J-250000D01*
G01*
X89600000Y-19125000D01*
G75*
G02*
X89350000Y-19375000I-250000J0D01*
G01*
X88650000Y-19375000D01*
G75*
G02*
X88400000Y-19125000I0J250000D01*
G01*
G37*
G04 #@! TD.AperFunction*
D12*
X91000000Y-18500000D03*
X93000000Y-18500000D03*
X95000000Y-18500000D03*
G04 #@! TA.AperFunction,ComponentPad*
G36*
G01*
X134867500Y-93750000D02*
X132867500Y-93750000D01*
G75*
G02*
X132617500Y-93500000I0J250000D01*
G01*
X132617500Y-91500000D01*
G75*
G02*
X132867500Y-91250000I250000J0D01*
G01*
X134867500Y-91250000D01*
G75*
G02*
X135117500Y-91500000I0J-250000D01*
G01*
X135117500Y-93500000D01*
G75*
G02*
X134867500Y-93750000I-250000J0D01*
G01*
G37*
G04 #@! TD.AperFunction*
D11*
X133867500Y-87500000D03*
G04 #@! TA.AperFunction,ComponentPad*
G36*
G01*
X31750000Y-104132500D02*
X31750000Y-106132500D01*
G75*
G02*
X31500000Y-106382500I-250000J0D01*
G01*
X29500000Y-106382500D01*
G75*
G02*
X29250000Y-106132500I0J250000D01*
G01*
X29250000Y-104132500D01*
G75*
G02*
X29500000Y-103882500I250000J0D01*
G01*
X31500000Y-103882500D01*
G75*
G02*
X31750000Y-104132500I0J-250000D01*
G01*
G37*
G04 #@! TD.AperFunction*
X25500000Y-105132500D03*
D10*
X124000000Y-94000000D03*
X124000000Y-86380000D03*
G04 #@! TA.AperFunction,ComponentPad*
G36*
G01*
X32900000Y-19125000D02*
X32900000Y-17875000D01*
G75*
G02*
X33150000Y-17625000I250000J0D01*
G01*
X33850000Y-17625000D01*
G75*
G02*
X34100000Y-17875000I0J-250000D01*
G01*
X34100000Y-19125000D01*
G75*
G02*
X33850000Y-19375000I-250000J0D01*
G01*
X33150000Y-19375000D01*
G75*
G02*
X32900000Y-19125000I0J250000D01*
G01*
G37*
G04 #@! TD.AperFunction*
D12*
X35500000Y-18500000D03*
X37500000Y-18500000D03*
X39500000Y-18500000D03*
D13*
X130691000Y-40470000D03*
D10*
X128151000Y-40470000D03*
X125611000Y-40470000D03*
X123071000Y-40470000D03*
X120531000Y-40470000D03*
X117991000Y-40470000D03*
X115451000Y-40470000D03*
X112911000Y-40470000D03*
D13*
X112911000Y-27770000D03*
D10*
X115451000Y-27770000D03*
X117991000Y-27770000D03*
X120531000Y-27770000D03*
X123071000Y-27770000D03*
X125611000Y-27770000D03*
X128151000Y-27770000D03*
X130691000Y-27770000D03*
G04 #@! TA.AperFunction,ComponentPad*
G36*
G01*
X78250000Y-105500000D02*
X78250000Y-103500000D01*
G75*
G02*
X78500000Y-103250000I250000J0D01*
G01*
X80500000Y-103250000D01*
G75*
G02*
X80750000Y-103500000I0J-250000D01*
G01*
X80750000Y-105500000D01*
G75*
G02*
X80500000Y-105750000I-250000J0D01*
G01*
X78500000Y-105750000D01*
G75*
G02*
X78250000Y-105500000I0J250000D01*
G01*
G37*
G04 #@! TD.AperFunction*
D11*
X84500000Y-104500000D03*
D13*
X127000000Y-106000000D03*
D10*
X127000000Y-103460000D03*
G04 #@! TA.AperFunction,ComponentPad*
G36*
G01*
X65750000Y-105500000D02*
X65750000Y-103500000D01*
G75*
G02*
X66000000Y-103250000I250000J0D01*
G01*
X68000000Y-103250000D01*
G75*
G02*
X68250000Y-103500000I0J-250000D01*
G01*
X68250000Y-105500000D01*
G75*
G02*
X68000000Y-105750000I-250000J0D01*
G01*
X66000000Y-105750000D01*
G75*
G02*
X65750000Y-105500000I0J250000D01*
G01*
G37*
G04 #@! TD.AperFunction*
D11*
X72000000Y-104500000D03*
D10*
X124000000Y-80000000D03*
X124000000Y-72380000D03*
D13*
X107000000Y-106000000D03*
D10*
X107000000Y-103460000D03*
D13*
X117000000Y-106000000D03*
D10*
X117000000Y-103460000D03*
G04 #@! TA.AperFunction,ComponentPad*
G36*
G01*
X134867500Y-65750000D02*
X132867500Y-65750000D01*
G75*
G02*
X132617500Y-65500000I0J250000D01*
G01*
X132617500Y-63500000D01*
G75*
G02*
X132867500Y-63250000I250000J0D01*
G01*
X134867500Y-63250000D01*
G75*
G02*
X135117500Y-63500000I0J-250000D01*
G01*
X135117500Y-65500000D01*
G75*
G02*
X134867500Y-65750000I-250000J0D01*
G01*
G37*
G04 #@! TD.AperFunction*
D11*
X133867500Y-59500000D03*
D14*
X17250000Y-92250000D03*
X34500000Y-92000000D03*
X17250000Y-52500000D03*
X34500000Y-52250000D03*
D15*
X73500000Y-45000000D03*
X74000000Y-35750000D03*
X125054700Y-33500000D03*
X105250000Y-77000000D03*
X48000000Y-70000000D03*
X109000000Y-94750000D03*
X67250000Y-76000000D03*
X82990600Y-44250000D03*
X116750000Y-67500000D03*
X110535000Y-45785000D03*
X71500000Y-74500000D03*
X51847400Y-61000000D03*
X84000000Y-48737300D03*
D16*
X59750000Y-91000000D02*
X57750000Y-89000000D01*
X59750000Y-99000000D02*
X62750000Y-96000000D01*
X55750000Y-95000000D02*
X56750000Y-96000000D01*
X52750000Y-96000000D02*
X51750000Y-95000000D01*
X57750000Y-89000000D02*
X59750000Y-87000000D01*
X55750000Y-95000000D02*
X54750000Y-96000000D01*
X56750000Y-96000000D02*
X58750000Y-96000000D01*
X51750000Y-99000000D02*
X59750000Y-99000000D01*
X51750000Y-95000000D02*
X51750000Y-94000000D01*
X51750000Y-84000000D02*
X48750000Y-81000000D01*
X51750000Y-91000000D02*
X53750000Y-89000000D01*
X48750000Y-81000000D02*
X48750000Y-96000000D01*
X62750000Y-96000000D02*
X62750000Y-81000000D01*
X54750000Y-96000000D02*
X52750000Y-96000000D01*
X55750000Y-94000000D02*
X55750000Y-95000000D01*
X59750000Y-95000000D02*
X59750000Y-94000000D01*
X62750000Y-81000000D02*
X59750000Y-84000000D01*
X48750000Y-96000000D02*
X51550000Y-98800000D01*
X53750000Y-89000000D02*
X51750000Y-87000000D01*
X58750000Y-96000000D02*
X59750000Y-95000000D01*
X59750000Y-84000000D02*
X51750000Y-84000000D01*
D17*
X76250000Y-45000000D02*
X73500000Y-45000000D01*
X45050000Y-23750000D02*
X46540000Y-25240000D01*
X43632500Y-101500000D02*
X40000000Y-105132500D01*
X101191000Y-24691000D02*
X101191000Y-27540000D01*
X58250000Y-30500000D02*
X58800000Y-29950000D01*
X85951000Y-27540000D02*
X85951000Y-29599000D01*
X85951000Y-40240000D02*
X88491000Y-40240000D01*
X85951000Y-29599000D02*
X85050000Y-30500000D01*
X76770000Y-30500000D02*
X74040000Y-27770000D01*
X58800000Y-25300000D02*
X60600000Y-23500000D01*
X130691000Y-29659000D02*
X129850000Y-30500000D01*
X130691000Y-27770000D02*
X130691000Y-29659000D01*
X114400000Y-30500000D02*
X101900000Y-30500000D01*
X46540000Y-25240000D02*
X46540000Y-28000000D01*
X67000000Y-104500000D02*
X64000000Y-101500000D01*
X31300000Y-25200000D02*
X32750000Y-23750000D01*
X115451000Y-29449000D02*
X114400000Y-30500000D01*
X85050000Y-30500000D02*
X76770000Y-30500000D01*
X116400000Y-30500000D02*
X115451000Y-29551000D01*
X46540000Y-28000000D02*
X49040000Y-30500000D01*
X77750000Y-43500000D02*
X76250000Y-45000000D01*
X58800000Y-29950000D02*
X58800000Y-27770000D01*
X85951000Y-25049000D02*
X87500000Y-23500000D01*
X85951000Y-27540000D02*
X85951000Y-25049000D01*
X32750000Y-23750000D02*
X45050000Y-23750000D01*
X115451000Y-28853800D02*
X115451000Y-29449000D01*
X77750000Y-37000000D02*
X77750000Y-43500000D01*
X72000000Y-104500000D02*
X67000000Y-104500000D01*
X61340000Y-40470000D02*
X58800000Y-40470000D01*
X87500000Y-23500000D02*
X100000000Y-23500000D01*
X74000000Y-35750000D02*
X76500000Y-35750000D01*
X100000000Y-23500000D02*
X101191000Y-24691000D01*
X60600000Y-23500000D02*
X72200000Y-23500000D01*
X64000000Y-101500000D02*
X43632500Y-101500000D01*
X72200000Y-23500000D02*
X74040000Y-25340000D01*
X74040000Y-25340000D02*
X74040000Y-27770000D01*
X115451000Y-28853800D02*
X115451000Y-27770000D01*
X76500000Y-35750000D02*
X77750000Y-37000000D01*
X115451000Y-29551000D02*
X115451000Y-28853800D01*
X129850000Y-30500000D02*
X116400000Y-30500000D01*
X101191000Y-29791000D02*
X101191000Y-27540000D01*
X49040000Y-30500000D02*
X58250000Y-30500000D01*
X31300000Y-28000000D02*
X31300000Y-25200000D01*
X33840000Y-40700000D02*
X31300000Y-40700000D01*
X58800000Y-27770000D02*
X58800000Y-25300000D01*
X101900000Y-30500000D02*
X101191000Y-29791000D01*
X71500000Y-28833500D02*
X71500000Y-31350000D01*
X71500000Y-31350000D02*
X69350000Y-33500000D01*
X45900000Y-33500000D02*
X23500000Y-33500000D01*
X44000000Y-28000000D02*
X44000000Y-31600000D01*
X73650000Y-33400000D02*
X71500000Y-31250000D01*
X98651000Y-27540000D02*
X98651000Y-31099000D01*
X71500000Y-31250000D02*
X71500000Y-28833500D01*
X69350000Y-33500000D02*
X45900000Y-33500000D01*
X17250000Y-39750000D02*
X17250000Y-52500000D01*
X23500000Y-33500000D02*
X17250000Y-39750000D01*
X17250000Y-52500000D02*
X29750000Y-65000000D01*
X44000000Y-31600000D02*
X45900000Y-33500000D01*
X71500000Y-27770000D02*
X71500000Y-28833500D01*
X100950000Y-33500000D02*
X98651000Y-31201000D01*
X125054700Y-33500000D02*
X100950000Y-33500000D01*
X96350000Y-33400000D02*
X73650000Y-33400000D01*
X98651000Y-31099000D02*
X96350000Y-33400000D01*
X29750000Y-65000000D02*
X71000000Y-65000000D01*
X98651000Y-31201000D02*
X98651000Y-27540000D01*
X83411000Y-21411000D02*
X77250000Y-15250000D01*
X30500000Y-105132500D02*
X25500000Y-105132500D01*
X23500000Y-25100000D02*
X23500000Y-18250000D01*
X107411000Y-15250000D02*
X112911000Y-20750000D01*
X28760000Y-28000000D02*
X26400000Y-28000000D01*
X23500000Y-18250000D02*
X26500000Y-15250000D01*
X26500000Y-15250000D02*
X50750000Y-15250000D01*
X56260000Y-20760000D02*
X50750000Y-15250000D01*
X83411000Y-21411000D02*
X83411000Y-27540000D01*
X77250000Y-15250000D02*
X107411000Y-15250000D01*
X56260000Y-27770000D02*
X56260000Y-20760000D01*
X26400000Y-28000000D02*
X23500000Y-25100000D01*
X50750000Y-15250000D02*
X77250000Y-15250000D01*
X112911000Y-27770000D02*
X112911000Y-20750000D01*
D18*
X130120000Y-64500000D02*
X124000000Y-58380000D01*
X101520000Y-58380000D02*
X124000000Y-58380000D01*
X98940000Y-60960000D02*
X101520000Y-58380000D01*
X124000000Y-58380000D02*
X123880000Y-58500000D01*
X98940000Y-65000000D02*
X98940000Y-60960000D01*
X133867500Y-64500000D02*
X130120000Y-64500000D01*
X79500000Y-102050000D02*
X81650000Y-99900000D01*
X79500000Y-104500000D02*
X79500000Y-102050000D01*
X103440000Y-99900000D02*
X107000000Y-103460000D01*
X127000000Y-103460000D02*
X117000000Y-103460000D01*
X107000000Y-103460000D02*
X117000000Y-103460000D01*
X81650000Y-99900000D02*
X103440000Y-99900000D01*
X139500000Y-55500000D02*
X137750000Y-53750000D01*
X124000000Y-72380000D02*
X127880000Y-68500000D01*
X139500000Y-66000000D02*
X139500000Y-55500000D01*
X102000000Y-53750000D02*
X96400000Y-59350000D01*
X137000000Y-68500000D02*
X139500000Y-66000000D01*
X127880000Y-68500000D02*
X137000000Y-68500000D01*
X130120000Y-78500000D02*
X124000000Y-72380000D01*
X133867500Y-78500000D02*
X130120000Y-78500000D01*
X96400000Y-59350000D02*
X96400000Y-65000000D01*
X137750000Y-53750000D02*
X102000000Y-53750000D01*
X133867500Y-92500000D02*
X130120000Y-92500000D01*
X130120000Y-92500000D02*
X124000000Y-86380000D01*
X105250000Y-77000000D02*
X114630000Y-86380000D01*
X114630000Y-86380000D02*
X124000000Y-86380000D01*
X81900000Y-70000000D02*
X83700000Y-68200000D01*
X48000000Y-70000000D02*
X81900000Y-70000000D01*
X83700000Y-68200000D02*
X83700000Y-65000000D01*
X81160000Y-92710000D02*
X81160000Y-90400000D01*
X83200000Y-94750000D02*
X81160000Y-92710000D01*
X109000000Y-94750000D02*
X83200000Y-94750000D01*
X96400000Y-85850000D02*
X96400000Y-90400000D01*
X67250000Y-76000000D02*
X73750000Y-82500000D01*
X93050000Y-82500000D02*
X96400000Y-85850000D01*
X73750000Y-82500000D02*
X93050000Y-82500000D01*
X88780000Y-61880000D02*
X88780000Y-65000000D01*
X84400000Y-57500000D02*
X88780000Y-61880000D01*
X28760000Y-40700000D02*
X28760000Y-52460000D01*
X33800000Y-57500000D02*
X84400000Y-57500000D01*
X28760000Y-52460000D02*
X33800000Y-57500000D01*
X83590600Y-43650000D02*
X127350000Y-43650000D01*
X128151000Y-42849000D02*
X128151000Y-40470000D01*
X82990600Y-44250000D02*
X83590600Y-43650000D01*
X127350000Y-43650000D02*
X128151000Y-42849000D01*
X71550000Y-85000000D02*
X81300000Y-85000000D01*
X116750000Y-67500000D02*
X112500000Y-71750000D01*
X81300000Y-85000000D02*
X83700000Y-87400000D01*
X63750000Y-77200000D02*
X71550000Y-85000000D01*
X112500000Y-71750000D02*
X66250000Y-71750000D01*
X66250000Y-71750000D02*
X63750000Y-74250000D01*
X83700000Y-87400000D02*
X83700000Y-90400000D01*
X63750000Y-74250000D02*
X63750000Y-77200000D01*
X91320000Y-59680000D02*
X91320000Y-65000000D01*
X110535000Y-45785000D02*
X107720000Y-48600000D01*
X102400000Y-48600000D02*
X91320000Y-59680000D01*
X107720000Y-48600000D02*
X102400000Y-48600000D01*
X76000000Y-79000000D02*
X98000000Y-79000000D01*
X104020000Y-85020000D02*
X104020000Y-90400000D01*
X71500000Y-74500000D02*
X76000000Y-79000000D01*
X98000000Y-79000000D02*
X104020000Y-85020000D01*
X78620000Y-62620000D02*
X78620000Y-65000000D01*
X51847400Y-61000000D02*
X77000000Y-61000000D01*
X77000000Y-61000000D02*
X78620000Y-62620000D01*
X56260000Y-44610000D02*
X56260000Y-40470000D01*
X60387300Y-48737300D02*
X56260000Y-44610000D01*
X84000000Y-48737300D02*
X60387300Y-48737300D01*
M02*
