M48
; DRILL file {KiCad 9.0.7} date 2026-01-12T00:18:48+0200
; FORMAT={-:-/ absolute / metric / decimal}
; #@! TF.CreationDate,2026-01-12T00:18:48+02:00
; #@! TF.GenerationSoftware,Kicad,Pcbnew,9.0.7
; #@! TF.FileFunction,Plated,1,2,PTH
FMAT,2
METRIC
; #@! TA.AperFunction,Plated,PTH,ViaDrill
T1C0.300
; #@! TA.AperFunction,Plated,PTH,ComponentDrill
T2C0.750
; #@! TA.AperFunction,Plated,PTH,ComponentDrill
T3C1.300
; #@! TA.AperFunction,Plated,PTH,ComponentDrill
T4C1.500
%
G90
G05
T1
X50.5Y-76.25
X68.22Y-51.5
X73.25Y-76.25
X76.0Y-54.5
X80.92Y-67.75
X97.25Y-77.0
X99.5Y-78.25
T2
X26.5Y-18.5
X28.5Y-18.5
X30.5Y-18.5
X32.5Y-18.5
X52.27Y-18.5
X54.27Y-18.5
X56.27Y-18.5
X58.27Y-18.5
X78.31Y-18.5
X80.31Y-18.5
X82.31Y-18.5
X84.31Y-18.5
X104.39Y-18.5
X106.39Y-18.5
X108.39Y-18.5
X110.39Y-18.5
T3
X97.0Y-98.867
X102.0Y-98.867
X111.5Y-98.867
X116.5Y-98.867
T4
X16.56Y-48.0
X16.56Y-87.75
X20.61Y-25.5
X20.61Y-38.2
X23.15Y-25.5
X23.15Y-38.2
X25.5Y-99.132
X25.69Y-25.5
X25.69Y-38.2
X28.23Y-25.5
X28.23Y-38.2
X30.5Y-99.132
X30.77Y-25.5
X30.77Y-38.2
X33.31Y-25.5
X33.31Y-38.2
X33.81Y-47.75
X33.81Y-87.5
X35.85Y-25.5
X35.85Y-38.2
X38.39Y-25.5
X38.39Y-38.2
X38.5Y-99.132
X43.5Y-99.132
X46.38Y-25.5
X46.38Y-38.2
X48.92Y-25.5
X48.92Y-38.2
X50.44Y-62.0
X50.44Y-87.4
X51.46Y-25.5
X51.46Y-38.2
X52.98Y-62.0
X52.98Y-87.4
X54.0Y-25.5
X54.0Y-38.2
X54.5Y-98.867
X55.52Y-62.0
X55.52Y-87.4
X56.54Y-25.5
X56.54Y-38.2
X58.06Y-62.0
X58.06Y-87.4
X59.08Y-25.5
X59.08Y-38.2
X59.5Y-98.867
X60.6Y-62.0
X60.6Y-87.4
X61.62Y-25.5
X61.62Y-38.2
X63.14Y-62.0
X63.14Y-87.4
X64.16Y-25.5
X64.16Y-38.2
X65.68Y-62.0
X65.68Y-87.4
X67.0Y-98.867
X68.22Y-62.0
X68.22Y-87.4
X70.76Y-62.0
X70.76Y-87.4
X72.0Y-98.867
X72.42Y-25.5
X72.42Y-38.2
X73.3Y-62.0
X73.3Y-87.4
X74.96Y-25.5
X74.96Y-38.2
X75.84Y-62.0
X75.84Y-87.4
X77.5Y-25.5
X77.5Y-38.2
X78.38Y-62.0
X78.38Y-87.4
X79.5Y-98.867
X80.04Y-25.5
X80.04Y-38.2
X80.92Y-62.0
X80.92Y-87.4
X82.58Y-25.5
X82.58Y-38.2
X83.46Y-62.0
X83.46Y-87.4
X84.5Y-98.867
X85.12Y-25.5
X85.12Y-38.2
X86.0Y-62.0
X86.0Y-87.4
X87.66Y-25.5
X87.66Y-38.2
X90.2Y-25.5
X90.2Y-38.2
X98.5Y-25.5
X98.5Y-38.2
X101.04Y-25.5
X101.04Y-38.2
X103.58Y-25.5
X103.58Y-38.2
X104.235Y-55.0
X104.235Y-69.0
X104.235Y-83.0
X106.12Y-25.5
X106.12Y-38.2
X106.775Y-55.0
X106.775Y-69.0
X106.775Y-83.0
X108.66Y-25.5
X108.66Y-38.2
X111.2Y-25.5
X111.2Y-38.2
X113.275Y-51.19
X113.275Y-58.81
X113.275Y-65.19
X113.275Y-72.81
X113.275Y-79.19
X113.275Y-86.81
X113.74Y-25.5
X113.74Y-38.2
X116.28Y-25.5
X116.28Y-38.2
X122.775Y-52.5
X122.775Y-57.5
X122.775Y-66.5
X122.775Y-71.5
X122.775Y-80.5
X122.775Y-85.5
M30
