%TF.GenerationSoftware,KiCad,Pcbnew,9.0.7*%
%TF.CreationDate,2026-01-11T23:37:53+02:00*%
%TF.ProjectId,automatic_soldering_station_pcb,6175746f-6d61-4746-9963-5f736f6c6465,rev?*%
%TF.SameCoordinates,Original*%
%TF.FileFunction,Copper,L2,Bot*%
%TF.FilePolarity,Positive*%
%FSLAX46Y46*%
G04 Gerber Fmt 4.6, Leading zero omitted, Abs format (unit mm)*
G04 Created by KiCad (PCBNEW 9.0.7) date 2026-01-11 23:37:53*
%MOMM*%
%LPD*%
G01*
G04 APERTURE LIST*
G04 Aperture macros list*
%AMRoundRect*
0 Rectangle with rounded corners*
0 $1 Rounding radius*
0 $2 $3 $4 $5 $6 $7 $8 $9 X,Y pos of 4 corners*
0 Add a 4 corners polygon primitive as box body*
4,1,4,$2,$3,$4,$5,$6,$7,$8,$9,$2,$3,0*
0 Add four circle primitives for the rounded corners*
1,1,$1+$1,$2,$3*
1,1,$1+$1,$4,$5*
1,1,$1+$1,$6,$7*
1,1,$1+$1,$8,$9*
0 Add four rect primitives between the rounded corners*
20,1,$1+$1,$2,$3,$4,$5,0*
20,1,$1+$1,$4,$5,$6,$7,0*
20,1,$1+$1,$6,$7,$8,$9,0*
20,1,$1+$1,$8,$9,$2,$3,0*%
G04 Aperture macros list end*
%TA.AperFunction,ComponentPad*%
%ADD10C,2.000000*%
%TD*%
%TA.AperFunction,ComponentPad*%
%ADD11RoundRect,0.250000X1.000000X-1.000000X1.000000X1.000000X-1.000000X1.000000X-1.000000X-1.000000X0*%
%TD*%
%TA.AperFunction,ComponentPad*%
%ADD12C,2.500000*%
%TD*%
%TA.AperFunction,ComponentPad*%
%ADD13RoundRect,0.250000X-0.350000X-0.625000X0.350000X-0.625000X0.350000X0.625000X-0.350000X0.625000X0*%
%TD*%
%TA.AperFunction,ComponentPad*%
%ADD14O,1.200000X1.750000*%
%TD*%
%TA.AperFunction,ComponentPad*%
%ADD15RoundRect,0.250000X-1.000000X-1.000000X1.000000X-1.000000X1.000000X1.000000X-1.000000X1.000000X0*%
%TD*%
%TA.AperFunction,ComponentPad*%
%ADD16R,2.000000X2.000000*%
%TD*%
%TA.AperFunction,ComponentPad*%
%ADD17RoundRect,0.250000X1.000000X1.000000X-1.000000X1.000000X-1.000000X-1.000000X1.000000X-1.000000X0*%
%TD*%
%TA.AperFunction,ComponentPad*%
%ADD18C,3.500000*%
%TD*%
%TA.AperFunction,ViaPad*%
%ADD19C,0.600000*%
%TD*%
%TA.AperFunction,Conductor*%
%ADD20C,0.700000*%
%TD*%
%TA.AperFunction,Conductor*%
%ADD21C,0.200000*%
%TD*%
G04 APERTURE END LIST*
D10*
%TO.P,R1,1*%
%TO.N,Net-(D1-K)*%
X113275000Y-58810000D03*
%TO.P,R1,2*%
%TO.N,/X_ENDPOINT*%
X113275000Y-51190000D03*
%TD*%
D11*
%TO.P,ENDPOINT_Y1,1,VIN*%
%TO.N,/Y_ENDPOINT*%
X122775000Y-71500000D03*
D12*
%TO.P,ENDPOINT_Y1,2,GND*%
%TO.N,GND*%
X122775000Y-66500000D03*
%TD*%
D13*
%TO.P,MOTOR_S_CONN1,1,A2*%
%TO.N,Net-(MOTOR_S_CONN1-A2)*%
X104390000Y-18500000D03*
D14*
%TO.P,MOTOR_S_CONN1,2,A1*%
%TO.N,Net-(MOTOR_S_CONN1-A1)*%
X106390000Y-18500000D03*
%TO.P,MOTOR_S_CONN1,3,B1*%
%TO.N,Net-(MOTOR_S_CONN1-B1)*%
X108390000Y-18500000D03*
%TO.P,MOTOR_S_CONN1,4,B2*%
%TO.N,Net-(MOTOR_S_CONN1-B2)*%
X110390000Y-18500000D03*
%TD*%
D13*
%TO.P,MOTOR_Y_CONN1,1,A2*%
%TO.N,Net-(MOTOR_Y_CONN1-A2)*%
X52270000Y-18500000D03*
D14*
%TO.P,MOTOR_Y_CONN1,2,A1*%
%TO.N,Net-(MOTOR_Y_CONN1-A1)*%
X54270000Y-18500000D03*
%TO.P,MOTOR_Y_CONN1,3,B1*%
%TO.N,Net-(MOTOR_Y_CONN1-B1)*%
X56270000Y-18500000D03*
%TO.P,MOTOR_Y_CONN1,4,B2*%
%TO.N,Net-(MOTOR_Y_CONN1-B2)*%
X58270000Y-18500000D03*
%TD*%
D15*
%TO.P,J4,1,SO*%
%TO.N,/MAX6675_SO*%
X79500000Y-98867500D03*
D12*
%TO.P,J4,2,CS*%
%TO.N,/MAX6675_CS*%
X84500000Y-98867500D03*
%TD*%
D16*
%TO.P,TMC2208_AXIS_Y1,JP1_1,DIR*%
%TO.N,/Y_DIR*%
X64160000Y-38200000D03*
D10*
%TO.P,TMC2208_AXIS_Y1,JP1_2,STEP*%
%TO.N,/Y_STEP*%
X61620000Y-38200000D03*
%TO.P,TMC2208_AXIS_Y1,JP1_3*%
%TO.N,N/C*%
X59080000Y-38200000D03*
%TO.P,TMC2208_AXIS_Y1,JP1_4,PDN/UART1*%
%TO.N,unconnected-(TMC2208_AXIS_Y1-PDN{slash}UART1-PadJP1_4)*%
X56540000Y-38200000D03*
%TO.P,TMC2208_AXIS_Y1,JP1_5,PDN/UART2*%
%TO.N,unconnected-(TMC2208_AXIS_Y1-PDN{slash}UART2-PadJP1_5)*%
X54000000Y-38200000D03*
%TO.P,TMC2208_AXIS_Y1,JP1_6,MS2*%
%TO.N,GND*%
X51460000Y-38200000D03*
%TO.P,TMC2208_AXIS_Y1,JP1_7,MS1*%
X48920000Y-38200000D03*
%TO.P,TMC2208_AXIS_Y1,JP1_8,EN*%
%TO.N,/Y_EN*%
X46380000Y-38200000D03*
D16*
%TO.P,TMC2208_AXIS_Y1,JP2_1,VM*%
%TO.N,+12V*%
X46380000Y-25500000D03*
D10*
%TO.P,TMC2208_AXIS_Y1,JP2_2,GND*%
%TO.N,GND*%
X48920000Y-25500000D03*
%TO.P,TMC2208_AXIS_Y1,JP2_3,OA2*%
%TO.N,Net-(MOTOR_Y_CONN1-A2)*%
X51460000Y-25500000D03*
%TO.P,TMC2208_AXIS_Y1,JP2_4,OA1*%
%TO.N,Net-(MOTOR_Y_CONN1-A1)*%
X54000000Y-25500000D03*
%TO.P,TMC2208_AXIS_Y1,JP2_5,OB1*%
%TO.N,Net-(MOTOR_Y_CONN1-B1)*%
X56540000Y-25500000D03*
%TO.P,TMC2208_AXIS_Y1,JP2_6,OB2*%
%TO.N,Net-(MOTOR_Y_CONN1-B2)*%
X59080000Y-25500000D03*
%TO.P,TMC2208_AXIS_Y1,JP2_7,VIO*%
%TO.N,+5V*%
X61620000Y-25500000D03*
%TO.P,TMC2208_AXIS_Y1,JP2_8,GND*%
%TO.N,GND*%
X64160000Y-25500000D03*
%TD*%
D16*
%TO.P,TMC2208_AXIS_X1,JP1_1,DIR*%
%TO.N,/X_DIR*%
X38390000Y-38200000D03*
D10*
%TO.P,TMC2208_AXIS_X1,JP1_2,STEP*%
%TO.N,/X_STEP*%
X35850000Y-38200000D03*
%TO.P,TMC2208_AXIS_X1,JP1_3*%
%TO.N,N/C*%
X33310000Y-38200000D03*
%TO.P,TMC2208_AXIS_X1,JP1_4,PDN/UART1*%
%TO.N,unconnected-(TMC2208_AXIS_X1-PDN{slash}UART1-PadJP1_4)*%
X30770000Y-38200000D03*
%TO.P,TMC2208_AXIS_X1,JP1_5,PDN/UART2*%
%TO.N,unconnected-(TMC2208_AXIS_X1-PDN{slash}UART2-PadJP1_5)*%
X28230000Y-38200000D03*
%TO.P,TMC2208_AXIS_X1,JP1_6,MS2*%
%TO.N,GND*%
X25690000Y-38200000D03*
%TO.P,TMC2208_AXIS_X1,JP1_7,MS1*%
X23150000Y-38200000D03*
%TO.P,TMC2208_AXIS_X1,JP1_8,EN*%
%TO.N,/X_EN*%
X20610000Y-38200000D03*
D16*
%TO.P,TMC2208_AXIS_X1,JP2_1,VM*%
%TO.N,+12V*%
X20610000Y-25500000D03*
D10*
%TO.P,TMC2208_AXIS_X1,JP2_2,GND*%
%TO.N,GND*%
X23150000Y-25500000D03*
%TO.P,TMC2208_AXIS_X1,JP2_3,OA2*%
%TO.N,Net-(MOTOR_X_CONN1-A2)*%
X25690000Y-25500000D03*
%TO.P,TMC2208_AXIS_X1,JP2_4,OA1*%
%TO.N,Net-(MOTOR_X_CONN1-A1)*%
X28230000Y-25500000D03*
%TO.P,TMC2208_AXIS_X1,JP2_5,OB1*%
%TO.N,Net-(MOTOR_X_CONN1-B1)*%
X30770000Y-25500000D03*
%TO.P,TMC2208_AXIS_X1,JP2_6,OB2*%
%TO.N,Net-(MOTOR_X_CONN1-B2)*%
X33310000Y-25500000D03*
%TO.P,TMC2208_AXIS_X1,JP2_7,VIO*%
%TO.N,+5V*%
X35850000Y-25500000D03*
%TO.P,TMC2208_AXIS_X1,JP2_8,GND*%
%TO.N,GND*%
X38390000Y-25500000D03*
%TD*%
D17*
%TO.P,J1,1,PWM*%
%TO.N,/XY_MOS_PWM*%
X43500000Y-99132500D03*
D12*
%TO.P,J1,2,GND*%
%TO.N,GND*%
X38500000Y-99132500D03*
%TD*%
D16*
%TO.P,ESP32_DevKit_V1_DOIT1,1,EN*%
%TO.N,unconnected-(ESP32_DevKit_V1_DOIT1-EN-Pad1)*%
X86000000Y-62000000D03*
D10*
%TO.P,ESP32_DevKit_V1_DOIT1,2,SENSOR_VP*%
%TO.N,unconnected-(ESP32_DevKit_V1_DOIT1-SENSOR_VP-Pad2)*%
X83460000Y-62000000D03*
%TO.P,ESP32_DevKit_V1_DOIT1,3,SENSOR_VN*%
%TO.N,/Z_ENDPOINT*%
X80920000Y-62000000D03*
%TO.P,ESP32_DevKit_V1_DOIT1,4,IO34*%
%TO.N,/X_ENDPOINT*%
X78380000Y-62000000D03*
%TO.P,ESP32_DevKit_V1_DOIT1,5,IO35*%
%TO.N,/Y_ENDPOINT*%
X75840000Y-62000000D03*
%TO.P,ESP32_DevKit_V1_DOIT1,6,IO32*%
%TO.N,/Z_EN*%
X73300000Y-62000000D03*
%TO.P,ESP32_DevKit_V1_DOIT1,7,IO33*%
%TO.N,/S_EN*%
X70760000Y-62000000D03*
%TO.P,ESP32_DevKit_V1_DOIT1,8,IO25*%
%TO.N,/X_EN*%
X68220000Y-62000000D03*
%TO.P,ESP32_DevKit_V1_DOIT1,9,IO26*%
%TO.N,/Y_EN*%
X65680000Y-62000000D03*
%TO.P,ESP32_DevKit_V1_DOIT1,10,IO27*%
%TO.N,/XY_MOS_PWM*%
X63140000Y-62000000D03*
%TO.P,ESP32_DevKit_V1_DOIT1,11,IO14*%
%TO.N,/S_STEP*%
X60600000Y-62000000D03*
%TO.P,ESP32_DevKit_V1_DOIT1,12,IO12*%
%TO.N,/X_DIR*%
X58060000Y-62000000D03*
%TO.P,ESP32_DevKit_V1_DOIT1,13,IO13*%
%TO.N,/Y_DIR*%
X55520000Y-62000000D03*
%TO.P,ESP32_DevKit_V1_DOIT1,14,GND*%
%TO.N,GND*%
X52980000Y-62000000D03*
%TO.P,ESP32_DevKit_V1_DOIT1,15,VIN*%
%TO.N,+5V*%
X50440000Y-62000000D03*
%TO.P,ESP32_DevKit_V1_DOIT1,16,3V3*%
%TO.N,+3.3V*%
X50440000Y-87400000D03*
%TO.P,ESP32_DevKit_V1_DOIT1,17,GND*%
%TO.N,GND*%
X52980000Y-87400000D03*
%TO.P,ESP32_DevKit_V1_DOIT1,18,IO15*%
%TO.N,/MAX6675_SCK*%
X55520000Y-87400000D03*
%TO.P,ESP32_DevKit_V1_DOIT1,19,IO2*%
%TO.N,unconnected-(ESP32_DevKit_V1_DOIT1-IO2-Pad19)*%
X58060000Y-87400000D03*
%TO.P,ESP32_DevKit_V1_DOIT1,20,IO4*%
%TO.N,/Z_DIR*%
X60600000Y-87400000D03*
%TO.P,ESP32_DevKit_V1_DOIT1,21,IO16*%
%TO.N,/S_DIR*%
X63140000Y-87400000D03*
%TO.P,ESP32_DevKit_V1_DOIT1,22,IO17*%
%TO.N,/SCL*%
X65680000Y-87400000D03*
%TO.P,ESP32_DevKit_V1_DOIT1,23,IO5*%
%TO.N,/MAX6675_CS*%
X68220000Y-87400000D03*
%TO.P,ESP32_DevKit_V1_DOIT1,24,IO18*%
%TO.N,/SDA*%
X70760000Y-87400000D03*
%TO.P,ESP32_DevKit_V1_DOIT1,25,IO19*%
%TO.N,/MAX6675_SO*%
X73300000Y-87400000D03*
%TO.P,ESP32_DevKit_V1_DOIT1,26,IO21*%
%TO.N,/X_STEP*%
X75840000Y-87400000D03*
%TO.P,ESP32_DevKit_V1_DOIT1,27,RXD0/IO3*%
%TO.N,unconnected-(ESP32_DevKit_V1_DOIT1-RXD0{slash}IO3-Pad27)*%
X78380000Y-87400000D03*
%TO.P,ESP32_DevKit_V1_DOIT1,28,TXD0/IO1*%
%TO.N,unconnected-(ESP32_DevKit_V1_DOIT1-TXD0{slash}IO1-Pad28)*%
X80920000Y-87400000D03*
%TO.P,ESP32_DevKit_V1_DOIT1,29,IO22*%
%TO.N,/Y_STEP*%
X83460000Y-87400000D03*
%TO.P,ESP32_DevKit_V1_DOIT1,30,IO23*%
%TO.N,/Z_STEP*%
X86000000Y-87400000D03*
%TD*%
D15*
%TO.P,J5,1,SCL*%
%TO.N,/SCL*%
X97000000Y-98867500D03*
D12*
%TO.P,J5,2,SDA*%
%TO.N,/SDA*%
X102000000Y-98867500D03*
%TD*%
D16*
%TO.P,TMC2208_AXIS_Z1,JP1_1,DIR*%
%TO.N,/Z_DIR*%
X90200000Y-38200000D03*
D10*
%TO.P,TMC2208_AXIS_Z1,JP1_2,STEP*%
%TO.N,/Z_STEP*%
X87660000Y-38200000D03*
%TO.P,TMC2208_AXIS_Z1,JP1_3*%
%TO.N,N/C*%
X85120000Y-38200000D03*
%TO.P,TMC2208_AXIS_Z1,JP1_4,PDN/UART1*%
%TO.N,unconnected-(TMC2208_AXIS_Z1-PDN{slash}UART1-PadJP1_4)*%
X82580000Y-38200000D03*
%TO.P,TMC2208_AXIS_Z1,JP1_5,PDN/UART2*%
%TO.N,unconnected-(TMC2208_AXIS_Z1-PDN{slash}UART2-PadJP1_5)*%
X80040000Y-38200000D03*
%TO.P,TMC2208_AXIS_Z1,JP1_6,MS2*%
%TO.N,GND*%
X77500000Y-38200000D03*
%TO.P,TMC2208_AXIS_Z1,JP1_7,MS1*%
X74960000Y-38200000D03*
%TO.P,TMC2208_AXIS_Z1,JP1_8,EN*%
%TO.N,/Z_EN*%
X72420000Y-38200000D03*
D16*
%TO.P,TMC2208_AXIS_Z1,JP2_1,VM*%
%TO.N,+12V*%
X72420000Y-25500000D03*
D10*
%TO.P,TMC2208_AXIS_Z1,JP2_2,GND*%
%TO.N,GND*%
X74960000Y-25500000D03*
%TO.P,TMC2208_AXIS_Z1,JP2_3,OA2*%
%TO.N,Net-(MOTOR_Z_CONN1-A2)*%
X77500000Y-25500000D03*
%TO.P,TMC2208_AXIS_Z1,JP2_4,OA1*%
%TO.N,Net-(MOTOR_Z_CONN1-A1)*%
X80040000Y-25500000D03*
%TO.P,TMC2208_AXIS_Z1,JP2_5,OB1*%
%TO.N,Net-(MOTOR_Z_CONN1-B1)*%
X82580000Y-25500000D03*
%TO.P,TMC2208_AXIS_Z1,JP2_6,OB2*%
%TO.N,Net-(MOTOR_Z_CONN1-B2)*%
X85120000Y-25500000D03*
%TO.P,TMC2208_AXIS_Z1,JP2_7,VIO*%
%TO.N,+5V*%
X87660000Y-25500000D03*
%TO.P,TMC2208_AXIS_Z1,JP2_8,GND*%
%TO.N,GND*%
X90200000Y-25500000D03*
%TD*%
D13*
%TO.P,MOTOR_Z_CONN1,1,A2*%
%TO.N,Net-(MOTOR_Z_CONN1-A2)*%
X78310000Y-18500000D03*
D14*
%TO.P,MOTOR_Z_CONN1,2,A1*%
%TO.N,Net-(MOTOR_Z_CONN1-A1)*%
X80310000Y-18500000D03*
%TO.P,MOTOR_Z_CONN1,3,B1*%
%TO.N,Net-(MOTOR_Z_CONN1-B1)*%
X82310000Y-18500000D03*
%TO.P,MOTOR_Z_CONN1,4,B2*%
%TO.N,Net-(MOTOR_Z_CONN1-B2)*%
X84310000Y-18500000D03*
%TD*%
D11*
%TO.P,ENDPOINT_Z1,1,VIN*%
%TO.N,/Z_ENDPOINT*%
X122775000Y-85500000D03*
D12*
%TO.P,ENDPOINT_Z1,2,GND*%
%TO.N,GND*%
X122775000Y-80500000D03*
%TD*%
D17*
%TO.P,12V2,1,12VIN*%
%TO.N,+12V*%
X30500000Y-99132500D03*
D12*
%TO.P,12V2,2,SI_PWR*%
X25500000Y-99132500D03*
%TD*%
D10*
%TO.P,R3,1*%
%TO.N,Net-(D3-K)*%
X113275000Y-86810000D03*
%TO.P,R3,2*%
%TO.N,/Z_ENDPOINT*%
X113275000Y-79190000D03*
%TD*%
D13*
%TO.P,MOTOR_X_CONN1,1,A2*%
%TO.N,Net-(MOTOR_X_CONN1-A2)*%
X26500000Y-18500000D03*
D14*
%TO.P,MOTOR_X_CONN1,2,A1*%
%TO.N,Net-(MOTOR_X_CONN1-A1)*%
X28500000Y-18500000D03*
%TO.P,MOTOR_X_CONN1,3,B1*%
%TO.N,Net-(MOTOR_X_CONN1-B1)*%
X30500000Y-18500000D03*
%TO.P,MOTOR_X_CONN1,4,B2*%
%TO.N,Net-(MOTOR_X_CONN1-B2)*%
X32500000Y-18500000D03*
%TD*%
D16*
%TO.P,TMC2208_AXIS_S1,JP1_1,DIR*%
%TO.N,/S_DIR*%
X116280000Y-38200000D03*
D10*
%TO.P,TMC2208_AXIS_S1,JP1_2,STEP*%
%TO.N,/S_STEP*%
X113740000Y-38200000D03*
%TO.P,TMC2208_AXIS_S1,JP1_3*%
%TO.N,N/C*%
X111200000Y-38200000D03*
%TO.P,TMC2208_AXIS_S1,JP1_4,PDN/UART1*%
%TO.N,unconnected-(TMC2208_AXIS_S1-PDN{slash}UART1-PadJP1_4)*%
X108660000Y-38200000D03*
%TO.P,TMC2208_AXIS_S1,JP1_5,PDN/UART2*%
%TO.N,unconnected-(TMC2208_AXIS_S1-PDN{slash}UART2-PadJP1_5)*%
X106120000Y-38200000D03*
%TO.P,TMC2208_AXIS_S1,JP1_6,MS2*%
%TO.N,GND*%
X103580000Y-38200000D03*
%TO.P,TMC2208_AXIS_S1,JP1_7,MS1*%
X101040000Y-38200000D03*
%TO.P,TMC2208_AXIS_S1,JP1_8,EN*%
%TO.N,/S_EN*%
X98500000Y-38200000D03*
D16*
%TO.P,TMC2208_AXIS_S1,JP2_1,VM*%
%TO.N,+12V*%
X98500000Y-25500000D03*
D10*
%TO.P,TMC2208_AXIS_S1,JP2_2,GND*%
%TO.N,GND*%
X101040000Y-25500000D03*
%TO.P,TMC2208_AXIS_S1,JP2_3,OA2*%
%TO.N,Net-(MOTOR_S_CONN1-A2)*%
X103580000Y-25500000D03*
%TO.P,TMC2208_AXIS_S1,JP2_4,OA1*%
%TO.N,Net-(MOTOR_S_CONN1-A1)*%
X106120000Y-25500000D03*
%TO.P,TMC2208_AXIS_S1,JP2_5,OB1*%
%TO.N,Net-(MOTOR_S_CONN1-B1)*%
X108660000Y-25500000D03*
%TO.P,TMC2208_AXIS_S1,JP2_6,OB2*%
%TO.N,Net-(MOTOR_S_CONN1-B2)*%
X111200000Y-25500000D03*
%TO.P,TMC2208_AXIS_S1,JP2_7,VIO*%
%TO.N,+5V*%
X113740000Y-25500000D03*
%TO.P,TMC2208_AXIS_S1,JP2_8,GND*%
%TO.N,GND*%
X116280000Y-25500000D03*
%TD*%
D15*
%TO.P,J3,1,VCC*%
%TO.N,+3.3V*%
X67000000Y-98867500D03*
D12*
%TO.P,J3,2,SCK*%
%TO.N,/MAX6675_SCK*%
X72000000Y-98867500D03*
%TD*%
D16*
%TO.P,D3,1,K*%
%TO.N,Net-(D3-K)*%
X106775000Y-83000000D03*
D10*
%TO.P,D3,2,A*%
%TO.N,+3.3V*%
X104235000Y-83000000D03*
%TD*%
D15*
%TO.P,J2,1,GND*%
%TO.N,GND*%
X54500000Y-98867500D03*
D12*
%TO.P,J2,2,GND*%
X59500000Y-98867500D03*
%TD*%
D10*
%TO.P,R2,1*%
%TO.N,Net-(D2-K)*%
X113275000Y-72810000D03*
%TO.P,R2,2*%
%TO.N,/Y_ENDPOINT*%
X113275000Y-65190000D03*
%TD*%
D16*
%TO.P,D1,1,K*%
%TO.N,Net-(D1-K)*%
X106775000Y-55000000D03*
D10*
%TO.P,D1,2,A*%
%TO.N,+3.3V*%
X104235000Y-55000000D03*
%TD*%
D16*
%TO.P,D2,1,K*%
%TO.N,Net-(D2-K)*%
X106775000Y-69000000D03*
D10*
%TO.P,D2,2,A*%
%TO.N,+3.3V*%
X104235000Y-69000000D03*
%TD*%
D15*
%TO.P,ENDPOINT_Y2,1,3.3V*%
%TO.N,+3.3V*%
X111500000Y-98867500D03*
D12*
%TO.P,ENDPOINT_Y2,2,GND*%
%TO.N,GND*%
X116500000Y-98867500D03*
%TD*%
D11*
%TO.P,ENDPOINT_X1,1,VIN*%
%TO.N,/X_ENDPOINT*%
X122775000Y-57500000D03*
D12*
%TO.P,ENDPOINT_X1,2,GND*%
%TO.N,GND*%
X122775000Y-52500000D03*
%TD*%
D18*
%TO.P,LM2596,0,12VIN*%
%TO.N,+12V*%
X16560000Y-87750000D03*
%TO.P,LM2596,1,GND*%
%TO.N,GND*%
X33810000Y-87500000D03*
%TO.P,LM2596,2,5VOUT*%
%TO.N,+5V*%
X16560000Y-48000000D03*
%TO.P,LM2596,3,GND*%
%TO.N,GND*%
X33810000Y-47750000D03*
%TD*%
D19*
%TO.N,/Z_ENDPOINT*%
X80920000Y-67750000D03*
%TO.N,/XY_MOS_PWM*%
X43500000Y-69500000D03*
%TO.N,/Z_DIR*%
X97250000Y-77000000D03*
%TO.N,/X_STEP*%
X37250000Y-76250000D03*
X73250000Y-76250000D03*
%TO.N,/X_EN*%
X67000000Y-34750000D03*
%TO.N,/S_STEP*%
X66500000Y-48500000D03*
%TO.N,/S_DIR*%
X99500000Y-78250000D03*
%TO.N,/S_EN*%
X69750000Y-34750000D03*
%TO.N,/Y_STEP*%
X74250000Y-45000000D03*
%TD*%
D20*
%TO.N,GND*%
X38500000Y-92190000D02*
X33810000Y-87500000D01*
X126000000Y-64867000D02*
X126000000Y-53750000D01*
X126000000Y-68133000D02*
X126000000Y-77275000D01*
X124367000Y-66500000D02*
X122775000Y-66500000D01*
X124367000Y-66500000D02*
X126000000Y-64867000D01*
X101040000Y-38200000D02*
X101040000Y-25500000D01*
X27500000Y-47750000D02*
X33810000Y-47750000D01*
X48920000Y-25500000D02*
X48920000Y-38200000D01*
X52980000Y-62000000D02*
X52980000Y-43730000D01*
X122775000Y-31995000D02*
X116280000Y-25500000D01*
X51500000Y-42250000D02*
X51500000Y-38240000D01*
X51500000Y-38240000D02*
X51460000Y-38200000D01*
X33810000Y-47750000D02*
X33810000Y-87500000D01*
X33810000Y-47750000D02*
X33810000Y-46320000D01*
X116500000Y-86775000D02*
X122775000Y-80500000D01*
X38500000Y-99132500D02*
X38500000Y-92190000D01*
X23150000Y-38200000D02*
X23150000Y-25500000D01*
X124367000Y-66500000D02*
X126000000Y-68133000D01*
X74960000Y-38200000D02*
X74960000Y-25500000D01*
X124750000Y-52500000D02*
X122775000Y-52500000D01*
X103580000Y-38200000D02*
X101040000Y-38200000D01*
X126000000Y-53750000D02*
X124750000Y-52500000D01*
X25690000Y-45940000D02*
X27500000Y-47750000D01*
X52980000Y-43730000D02*
X51500000Y-42250000D01*
X25690000Y-38200000D02*
X25690000Y-45940000D01*
X52980000Y-97347500D02*
X52980000Y-87400000D01*
X122775000Y-52500000D02*
X122775000Y-31995000D01*
X54500000Y-98867500D02*
X52980000Y-97347500D01*
X52980000Y-87400000D02*
X52980000Y-62000000D01*
X116500000Y-98867500D02*
X116500000Y-86775000D01*
X126000000Y-77275000D02*
X122775000Y-80500000D01*
D21*
%TO.N,+5V*%
X42250000Y-53810000D02*
X42250000Y-35000000D01*
X42250000Y-35000000D02*
X35850000Y-28600000D01*
X50440000Y-62000000D02*
X42250000Y-53810000D01*
X35850000Y-28600000D02*
X35850000Y-25500000D01*
D20*
%TO.N,+12V*%
X16000000Y-28000000D02*
X18500000Y-25500000D01*
X25500000Y-93975800D02*
X19274200Y-87750000D01*
X25500000Y-99132500D02*
X25500000Y-93975800D01*
X22000000Y-85024200D02*
X22000000Y-46500000D01*
X16560000Y-87750000D02*
X19274200Y-87750000D01*
X16000000Y-40500000D02*
X16000000Y-28000000D01*
X18500000Y-25500000D02*
X20610000Y-25500000D01*
X19274200Y-87750000D02*
X22000000Y-85024200D01*
X22000000Y-46500000D02*
X16000000Y-40500000D01*
D21*
%TO.N,/SCL*%
X63250000Y-94500000D02*
X63250000Y-101500000D01*
X65500000Y-103750000D02*
X95500000Y-103750000D01*
X65680000Y-87400000D02*
X65680000Y-92070000D01*
X97000000Y-102250000D02*
X97000000Y-98867500D01*
X65680000Y-92070000D02*
X63250000Y-94500000D01*
X63250000Y-101500000D02*
X65500000Y-103750000D01*
X95500000Y-103750000D02*
X97000000Y-102250000D01*
%TO.N,Net-(MOTOR_X_CONN1-B1)*%
X30500000Y-25230000D02*
X30500000Y-18500000D01*
X30770000Y-25500000D02*
X30500000Y-25230000D01*
%TO.N,Net-(MOTOR_X_CONN1-B2)*%
X32500000Y-18500000D02*
X33401700Y-19401700D01*
X33401700Y-19401700D02*
X33401700Y-25408300D01*
X33401700Y-25408300D02*
X33310000Y-25500000D01*
%TO.N,Net-(MOTOR_X_CONN1-A1)*%
X28230000Y-25500000D02*
X28500000Y-25230000D01*
X28500000Y-25230000D02*
X28500000Y-18500000D01*
%TO.N,Net-(MOTOR_X_CONN1-A2)*%
X26500000Y-18500000D02*
X25690000Y-19310000D01*
X25690000Y-19310000D02*
X25690000Y-25500000D01*
%TO.N,Net-(MOTOR_S_CONN1-A1)*%
X106390000Y-18500000D02*
X106390000Y-25230000D01*
X106390000Y-25230000D02*
X106120000Y-25500000D01*
%TO.N,Net-(MOTOR_S_CONN1-B1)*%
X108660000Y-25500000D02*
X108390000Y-25230000D01*
X108390000Y-25230000D02*
X108390000Y-18500000D01*
%TO.N,Net-(MOTOR_S_CONN1-B2)*%
X111291700Y-25408300D02*
X111200000Y-25500000D01*
X111291700Y-19400000D02*
X111291700Y-25408300D01*
X110391700Y-18500000D02*
X111291700Y-19400000D01*
X110390000Y-18500000D02*
X110391700Y-18500000D01*
%TO.N,Net-(MOTOR_S_CONN1-A2)*%
X104390000Y-18500000D02*
X103580000Y-19310000D01*
X103580000Y-19310000D02*
X103580000Y-25500000D01*
%TO.N,Net-(MOTOR_Y_CONN1-A2)*%
X51460000Y-19310000D02*
X52270000Y-18500000D01*
X51460000Y-25500000D02*
X51460000Y-19310000D01*
%TO.N,Net-(MOTOR_Y_CONN1-B1)*%
X56540000Y-25500000D02*
X56270000Y-25230000D01*
X56270000Y-25230000D02*
X56270000Y-18500000D01*
%TO.N,Net-(MOTOR_Y_CONN1-B2)*%
X59171700Y-19401700D02*
X58270000Y-18500000D01*
X59080000Y-25500000D02*
X59171700Y-25408300D01*
X59171700Y-25408300D02*
X59171700Y-19401700D01*
%TO.N,Net-(MOTOR_Y_CONN1-A1)*%
X54000000Y-25500000D02*
X54270000Y-25230000D01*
X54270000Y-25230000D02*
X54270000Y-18500000D01*
%TO.N,Net-(MOTOR_Z_CONN1-B2)*%
X85211700Y-19401700D02*
X85211700Y-25408300D01*
X85211700Y-25408300D02*
X85120000Y-25500000D01*
X84310000Y-18500000D02*
X85211700Y-19401700D01*
%TO.N,Net-(MOTOR_Z_CONN1-A2)*%
X77500000Y-19310000D02*
X78310000Y-18500000D01*
X77500000Y-25500000D02*
X77500000Y-19310000D01*
%TO.N,Net-(MOTOR_Z_CONN1-A1)*%
X80310000Y-25230000D02*
X80310000Y-18500000D01*
X80040000Y-25500000D02*
X80310000Y-25230000D01*
%TO.N,Net-(MOTOR_Z_CONN1-B1)*%
X82310000Y-18500000D02*
X82310000Y-25230000D01*
X82250000Y-25170000D02*
X82580000Y-25500000D01*
X82310000Y-25230000D02*
X82580000Y-25500000D01*
%TO.N,+3.3V*%
X104235000Y-83000000D02*
X104235000Y-69000000D01*
X104235000Y-55000000D02*
X104235000Y-69000000D01*
X104235000Y-91602500D02*
X104235000Y-83000000D01*
X111500000Y-98867500D02*
X104235000Y-91602500D01*
%TO.N,/Z_ENDPOINT*%
X80920000Y-67750000D02*
X80920000Y-62000000D01*
%TO.N,/XY_MOS_PWM*%
X43500000Y-69500000D02*
X43500000Y-99132500D01*
%TO.N,/MAX6675_SO*%
X79500000Y-98867500D02*
X73300000Y-92667500D01*
X73300000Y-92667500D02*
X73300000Y-87400000D01*
%TO.N,/Z_DIR*%
X97250000Y-45250000D02*
X90200000Y-38200000D01*
X97250000Y-77000000D02*
X97250000Y-45250000D01*
%TO.N,/X_STEP*%
X73250000Y-76250000D02*
X75840000Y-78840000D01*
X37123800Y-76123800D02*
X37123800Y-42873800D01*
X37123800Y-42873800D02*
X35850000Y-41600000D01*
X37250000Y-76250000D02*
X37123800Y-76123800D01*
X35850000Y-41600000D02*
X35850000Y-38200000D01*
X75840000Y-78840000D02*
X75840000Y-87400000D01*
%TO.N,/X_EN*%
X67000000Y-34750000D02*
X68220000Y-35970000D01*
X68220000Y-35970000D02*
X68220000Y-62000000D01*
%TO.N,/S_STEP*%
X60600000Y-54400000D02*
X60600000Y-62000000D01*
X66500000Y-48500000D02*
X60600000Y-54400000D01*
%TO.N,/S_DIR*%
X99500000Y-78250000D02*
X99500000Y-48250000D01*
X116280000Y-44220000D02*
X116280000Y-38200000D01*
X114250000Y-46250000D02*
X116280000Y-44220000D01*
X99500000Y-48250000D02*
X101500000Y-46250000D01*
X101500000Y-46250000D02*
X114250000Y-46250000D01*
%TO.N,/S_EN*%
X69750000Y-34750000D02*
X69750000Y-57250000D01*
X70760000Y-58260000D02*
X70760000Y-62000000D01*
X69750000Y-57250000D02*
X70760000Y-58260000D01*
%TO.N,/Y_DIR*%
X64160000Y-41840000D02*
X55520000Y-50480000D01*
X55520000Y-50480000D02*
X55520000Y-62000000D01*
X64160000Y-38200000D02*
X64160000Y-41840000D01*
%TO.N,/Z_EN*%
X72420000Y-61120000D02*
X73300000Y-62000000D01*
X72420000Y-38200000D02*
X72420000Y-61120000D01*
%TO.N,/Y_STEP*%
X91750000Y-50554700D02*
X91750000Y-74750000D01*
X74250000Y-45000000D02*
X86195300Y-45000000D01*
X91750000Y-74750000D02*
X83460000Y-83040000D01*
X86195300Y-45000000D02*
X91750000Y-50554700D01*
X83460000Y-83040000D02*
X83460000Y-87400000D01*
%TO.N,/Z_STEP*%
X86000000Y-84250000D02*
X94500000Y-75750000D01*
X94500000Y-49000000D02*
X87660000Y-42160000D01*
X86000000Y-87400000D02*
X86000000Y-84250000D01*
X87660000Y-42160000D02*
X87660000Y-38200000D01*
X94500000Y-75750000D02*
X94500000Y-49000000D01*
%TO.N,/Y_EN*%
X46500000Y-38320000D02*
X46380000Y-38200000D01*
%TD*%
M02*
